# xmcd
#
# Track frame offsets:
#	150
#	15200
#	30017
#	44577
#	59165
#	72935
#	86652
#	101430
#	117132
#	131600
#	146057
#	160305
#	175677
#	199840
#	213485
#	235877
#
# Disc length: 3401 seconds
#
# Revision: 3
# Processed by: cddbd v1.4PL0 Copyright (c) Steve Scherf et al.
# Submitted via: audiograbber 1.81.03
#
DISCID=da0d4710
DTITLE=Louis Armstrong - Satch Blows The Blues
DYEAR=1900
DGENRE=
TTITLE0=West End Blues
TTITLE1=Basin Street Blues
TTITLE2=St. James Infirmary
TTITLE3=Tight Like This
TTITLE4=St. Louis Blues
TTITLE5=Black And Blue
TTITLE6=Dallas Blues
TTITLE7=Blue, Turning Grey Over You
TTITLE8=Memories Of You
TTITLE9=Blue Again
TTITLE10=When Your Lover Has Gone
TTITLE11=Lawd! You Made The Night To Long
TTITLE12=Hesitation Blues
TTITLE13=The Memphis Blues
TTITLE14=Beale Street Blues
TTITLE15=Yellow Dog Blues
EXTD=
EXTT0=
EXTT1=
EXTT2=
EXTT3=
EXTT4=
EXTT5=
EXTT6=
EXTT7=
EXTT8=
EXTT9=
EXTT10=
EXTT11=
EXTT12=
EXTT13=
EXTT14=
EXTT15=
PLAYORDER=
